<svg xmlns="http://www.w3.org/2000/svg" version="1.1" xmlns:xlink="http://www.w3.org/1999/xlink" xmlns:svgjs="http://svgjs.dev/svgjs" width="1000" height="711" viewBox="0 0 1000 711"><g transform="matrix(1,0,0,1,0.09887513298497197,0.2878542510121065)"><svg viewBox="0 0 347 247" data-background-color="#00784a" preserveAspectRatio="xMidYMid meet" height="711" width="1000" xmlns="http://www.w3.org/2000/svg" xmlns:xlink="http://www.w3.org/1999/xlink"><defs></defs><g id="tight-bounds" transform="matrix(1,0,0,1,-0.034309671145791754,-0.09999999999999432)"><svg viewBox="0 0 347.06861824265565 247.2" height="247.2" width="347.06861824265565"><g><svg viewBox="0 0 395.52 281.7095492385934" height="247.2" width="347.06861824265565"><g transform="matrix(1,0,0,1,0,209.03159439820928)"><svg viewBox="0 0 395.52 72.67795484038412" height="72.67795484038412" width="395.52"><g><svg viewBox="0 0 395.52 72.67795484038412" height="72.67795484038412" width="395.52"><g><svg viewBox="0 0 395.52 72.67795484038412" height="72.67795484038412" width="395.52"><g transform="matrix(1,0,0,1,0,0)"><svg width="395.52" viewBox="3 -35.400001525878906 192.63999938964844 35.400001525878906" height="72.67795484038412" data-palette-color="#fffafe"><path d="M11 0L4 0 4-27.2 3-32.25 4-35.4 11-35.4 11-29.4 10.5-19.95 14.5-19.95 22.55-35.4 30.5-35.4 30.5-32.4 20.6-18.35 29-7.95 33.95-3 33.95 0 24.7 0 15.6-14.25 11-13.75 11-6 11.5-3 11 0ZM42.25 0L34.95 0 37.85-9.45 37.85-14.3 41.05-15.8 47.55-35.35 57.4-35.35 65.45-12.95 69.3-5.85 69.3 0 62.45 0 59.45-9 44.9-9 42.25 0ZM51.85-28.75L47.7-15.2 57.2-15.2 52.9-28.75 51.85-28.75ZM85.05 0L78.05 0 78.05-29 67.05-28.5 67.05-35.4 96.3-35.4 96.3-28.5 85.05-29 85.05-8 85.6-3 85.05 0ZM112.44 0L101.54 0 101.54-27.35 100.54-32.35 101.54-35.4 112.44-35.4Q116.04-35.4 119.37-34.73 122.69-34.05 125.32-32.2 127.94-30.35 129.47-26.9 130.99-23.45 130.99-17.95L130.99-17.95Q130.99-12.45 129.44-8.93 127.89-5.4 125.24-3.45 122.59-1.5 119.27-0.75 115.94 0 112.44 0L112.44 0ZM108.64-28.9L108.64-6.5 113.94-6.5Q119.14-6.5 121.34-9.58 123.54-12.65 123.54-17.95L123.54-17.95Q123.54-23.25 121.32-26.08 119.09-28.9 113.94-28.9L113.94-28.9 108.64-28.9ZM161.09 0L137.19 0 136.19-3 137.19-8 137.19-35.4 159.89-35.4 162.39-33.9 159.59-28.4 154.59-28.9 144.09-28.9 144.09-21.15 157.59-21.15 157.59-14.9 152.69-14.9 144.09-15.4 144.09-6.5 160.09-6.5 164.04-3.2 161.09 0ZM173.29 0L164.74 0 173.79-17.95 165.24-32.4 165.24-35.4 173.69-35.4 179.69-20.6 180.69-20.6 186.64-35.4 195.64-35.4 186.49-17.8 195.14-3 195.14 0 186.84 0 180.69-14.2 179.69-14.2 173.29 0Z" opacity="1" transform="matrix(1,0,0,1,0,0)" fill="#fffafe" class="undefined-text-0" data-fill-palette-color="primary" id="text-0"></path></svg></g></svg></g></svg></g></svg></g><g transform="matrix(1,0,0,1,110.40172366779387,0)"><svg viewBox="0 0 174.71655266441223 174.71655266441223" height="174.71655266441223" width="174.71655266441223"><g><svg></svg></g><g id="icon-0"><svg viewBox="0 0 174.71655266441223 174.71655266441223" height="174.71655266441223" width="174.71655266441223"><g><path d="M0 87.358c0-48.247 39.112-87.358 87.358-87.358 48.247 0 87.358 39.112 87.359 87.358 0 48.247-39.112 87.358-87.359 87.359-48.247 0-87.358-39.112-87.358-87.359zM87.358 168.162c44.627 0 80.804-36.177 80.804-80.804 0-44.627-36.177-80.804-80.804-80.804-44.627 0-80.804 36.177-80.804 80.804 0 44.627 36.177 80.804 80.804 80.804z" data-fill-palette-color="accent" fill="#fffafe" stroke="transparent"></path><ellipse rx="86.48469356888405" ry="86.48469356888405" cx="87.35827633220612" cy="87.35827633220612" fill="#fffafe" stroke="transparent" stroke-width="0" fill-opacity="1" data-fill-palette-color="accent"></ellipse></g><g transform="matrix(1,0,0,1,51.96610600998453,38.86310050744086)"><svg viewBox="0 0 70.78434064444318 96.99035164953051" height="96.99035164953051" width="70.78434064444318"><g><svg xmlns="http://www.w3.org/2000/svg" xmlns:xlink="http://www.w3.org/1999/xlink" version="1.1" x="0" y="0" viewBox="5.117006301879883 4.861001968383789 65.9439926147461 90.35799407958984" enable-background="new 0 0 77 100" xml:space="preserve" height="96.99035164953051" width="70.78434064444318" class="icon-x-0" data-fill-palette-color="quaternary" id="x-0"><path fill="#00784a" d="M28.301 46.507c0 0.522-0.42 0.939-0.935 0.939-0.293 0-0.551-0.134-0.724-0.346-0.346-0.275-1.362-1.066-1.722-1.15-0.261-0.063-1.256 1.002-1.902 1.545-0.169 0.233-0.441 0.381-0.752 0.381-0.519 0-0.939-0.417-0.939-0.932 0-0.226 0.082-0.431 0.216-0.593l-0.014-0.021c0 0 2.283-2.244 3.007-2.463C25.26 43.642 26 44.094 26 44.094s1.514 1.122 1.987 1.722C28.178 45.985 28.301 46.232 28.301 46.507zM32.211 53.601c-0.473-0.593-1.987-1.716-1.987-1.716s-0.741-0.451-1.464-0.232c-0.724 0.226-3.006 2.47-3.006 2.47l0.014 0.021c-0.134 0.164-0.215 0.361-0.215 0.587 0 0.522 0.42 0.938 0.939 0.938 0.31 0 0.582-0.148 0.751-0.382 0.646-0.543 1.641-1.608 1.902-1.552 0.359 0.085 1.376 0.882 1.722 1.158 0.173 0.211 0.431 0.345 0.723 0.345 0.515 0 0.935-0.417 0.935-0.938C32.525 54.023 32.401 53.776 32.211 53.601zM44.883 53c-0.473-0.593-1.986-1.715-1.986-1.715s-0.741-0.452-1.465-0.233c-0.724 0.22-3.006 2.471-3.006 2.471l0.015 0.014c-0.131 0.163-0.216 0.367-0.216 0.593 0 0.516 0.423 0.938 0.939 0.938 0.31 0 0.582-0.154 0.755-0.38 0.643-0.551 1.638-1.617 1.898-1.553 0.363 0.084 1.376 0.875 1.722 1.157 0.173 0.204 0.431 0.346 0.724 0.346 0.519 0 0.938-0.423 0.938-0.938C45.2 53.416 45.077 53.169 44.883 53zM57.393 52.943c-0.473-0.593-1.986-1.715-1.986-1.715s-0.741-0.452-1.465-0.232c-0.724 0.226-3.006 2.47-3.006 2.47l0.014 0.015c-0.134 0.161-0.216 0.367-0.216 0.593 0 0.515 0.421 0.938 0.938 0.938 0.312 0 0.582-0.155 0.753-0.382 0.645-0.542 1.64-1.615 1.901-1.553 0.36 0.085 1.376 0.884 1.722 1.158 0.173 0.212 0.431 0.345 0.724 0.345 0.516 0 0.936-0.423 0.936-0.938C57.707 53.367 57.583 53.12 57.393 52.943zM53.439 44.99c-0.469-0.593-1.986-1.715-1.986-1.715s-0.741-0.452-1.463-0.233c-0.721 0.219-3.008 2.47-3.008 2.47l0.014 0.014c-0.13 0.162-0.211 0.367-0.211 0.593 0 0.515 0.419 0.938 0.938 0.938 0.307 0 0.578-0.155 0.751-0.381 0.643-0.55 1.639-1.616 1.902-1.553 0.359 0.084 1.374 0.875 1.723 1.157 0.173 0.205 0.427 0.346 0.721 0.346 0.518 0 0.938-0.424 0.938-0.939C53.759 45.406 53.635 45.159 53.439 44.99zM40.331 43.508c-0.473-0.593-1.987-1.715-1.987-1.715s-0.741-0.451-1.464-0.233c-0.724 0.226-3.006 2.47-3.006 2.47l0.014 0.015c-0.134 0.162-0.215 0.367-0.215 0.592 0 0.516 0.419 0.939 0.938 0.939 0.31 0 0.582-0.155 0.751-0.381 0.646-0.543 1.641-1.609 1.902-1.552 0.36 0.084 1.376 0.882 1.722 1.157 0.173 0.211 0.431 0.346 0.723 0.346 0.517 0 0.939-0.424 0.939-0.939C40.648 43.931 40.524 43.684 40.331 43.508zM22.5 54.095c-0.473-0.594-1.987-1.716-1.987-1.716s-0.741-0.451-1.465-0.232c-0.724 0.226-3.006 2.47-3.006 2.47l0.014 0.021c-0.131 0.162-0.215 0.36-0.215 0.586 0 0.522 0.423 0.938 0.938 0.938 0.31 0 0.582-0.148 0.755-0.382 0.642-0.543 1.638-1.608 1.899-1.553 0.36 0.086 1.375 0.884 1.721 1.158 0.173 0.212 0.431 0.346 0.724 0.346 0.519 0 0.939-0.416 0.939-0.938C22.817 54.518 22.694 54.271 22.5 54.095zM26.597 22.582c-0.924 0-1.676 0.748-1.676 1.672 0 0.925 0.752 1.673 1.676 1.673 0.921 0 1.672-0.748 1.672-1.673C28.269 23.33 27.518 22.582 26.597 22.582zM26.237 24.501c-0.392 0-0.713-0.317-0.713-0.712 0-0.396 0.321-0.713 0.713-0.713 0.395 0 0.713 0.318 0.713 0.713C26.95 24.184 26.632 24.501 26.237 24.501zM49.746 22.582c-0.925 0-1.673 0.748-1.673 1.672 0 0.925 0.748 1.673 1.673 1.673 0.924 0 1.672-0.748 1.672-1.673C51.418 23.33 50.67 22.582 49.746 22.582zM49.28 24.501c-0.396 0-0.713-0.317-0.713-0.712 0-0.396 0.317-0.713 0.713-0.713 0.391 0 0.713 0.318 0.713 0.713C49.993 24.184 49.671 24.501 49.28 24.501zM62.17 34.947c1.397 0.197 2.792 0.423 4.183 0.656 0.79 0.134 1.573 0.29 2.356 0.459 0.787 0.148 1.563 0.339 2.352 0.508-1.487-0.621-3.04-1.073-4.603-1.454-1.535-0.388-3.092-0.656-4.654-0.889-0.714-1.383-1.412-2.689-2.071-3.889 0.494-0.028 0.991-0.063 1.485-0.099L64.954 30c1.243-0.071 2.488-0.142 3.749-0.177-2.488-0.438-5.026-0.388-7.527-0.24-0.593 0.042-1.186 0.098-1.778 0.155-0.509-0.917-0.992-1.771-1.437-2.541 1.604-0.818 3.221-1.581 4.922-2.258-1.845 0.176-3.605 0.868-5.25 1.687-2.368-4.107-4.2-7.17-5.845-9.365 1.833-8.681-1.545-12.4-1.545-12.4-2.665 3.084-3.857 5.794-4.361 7.855-3.465-0.656-11.744-0.67-15.672 0.028-0.519-2.054-1.718-4.722-4.337-7.749 0 0-3.419 3.769-1.51 12.562-1.451 2.075-3.275 4.969-5.837 8.935-0.011 0.021-0.021 0.036-0.032 0.056-1.63-0.811-3.374-1.481-5.202-1.658 1.673 0.656 3.265 1.404 4.845 2.216-0.526 0.818-1.059 1.672-1.595 2.555-0.512-0.049-1.027-0.091-1.542-0.127-2.501-0.155-5.039-0.205-7.523 0.233 1.256 0.035 2.501 0.113 3.747 0.177l3.734 0.247c0.406 0.021 0.815 0.05 1.221 0.078-0.762 1.277-1.528 2.604-2.279 3.98-1.404 0.212-2.802 0.466-4.182 0.812-0.78 0.19-1.56 0.402-2.329 0.635-0.766 0.254-1.531 0.508-2.272 0.826 0.788-0.177 1.563-0.367 2.354-0.515 0.78-0.17 1.566-0.318 2.354-0.452 1.225-0.211 2.456-0.409 3.688-0.586C9.394 42.654 5.84 51.63 5.84 60.009c0.053 2.308 0.237 4.171 0.501 5.702 0.011 1.411 0.166 8.215 2.174 9.535l0.631 0.409-0.084-0.748c-0.036-0.297-0.057-0.636-0.067-0.981 0.311 1.059 0.741 1.92 1.33 2.308l0.604 0.396c0.878 4.679 3.332 11.828 8.935 15.829 0.103 0.079 0.222 0.142 0.332 0.214-0.677 0.296-1.418 0.691-2.015 1.198l-0.544 0.46 0.703 0.12c0.914 0.147 1.517 0.197 1.973 0.204l-0.427 0.529 0.712-0.021c0.494-0.014 0.833-0.056 1.158-0.099 0.797-0.099 1.553-0.197 4.711 0.155 2.209-0.057 3.384-0.239 4.019-0.452 2.407 0.049 4.789-0.035 6.803-0.035 0.071 0 0.145 0 0.216 0 0.127-0.204 0.254-0.389 0.367-0.515 0.035-0.134 0.099-0.17 0.18-0.142 0.081-0.035 0.148 0.008 0.183 0.142 0.113 0.126 0.24 0.311 0.367 0.521 2.149 0.015 4.379 0.058 6.585-0.021 0.698 0.163 1.813 0.29 3.603 0.34 3.158-0.354 3.914-0.261 4.711-0.155 0.328 0.042 0.663 0.084 1.158 0.099l0.712 0.021-0.424-0.529c0.453-0.008 1.056-0.057 1.971-0.212l0.701-0.113-0.543-0.458c-0.501-0.432-1.108-0.777-1.693-1.06 0.366-0.184 0.723-0.373 1.069-0.592 6.534-4.045 8.137-11.187 9.04-15.831l-0.024 0.212 0.632-0.416c0.589-0.39 1.02-1.249 1.333-2.308-0.015 0.353-0.034 0.685-0.066 0.987l-0.089 0.748 0.632-0.416c1.986-1.306 2.16-7.99 2.174-9.492 0.176-1.392 0.237-3.211 0.124-5.668C69.832 51.737 65.9 42.308 62.17 34.947zM8.286 73.876c-0.561-1.101-0.882-3.013-1.059-4.812 0.35 0.903 0.73 1.567 1.108 2.075C8.293 71.865 8.254 72.91 8.286 73.876zM10.096 74.864c-0.342-0.67-0.593-1.644-0.776-2.703 0.303 0.24 0.579 0.403 0.797 0.529C10.089 73.348 10.071 74.123 10.096 74.864zM49.583 20.825c2.012 0 3.649 1.637 3.649 3.649 0 2.011-1.638 3.649-3.649 3.649-2.011 0-3.648-1.638-3.648-3.649C45.935 22.462 47.572 20.825 49.583 20.825zM39.686 21.975c0.274-0.021 0.543-0.049 0.832-0.042 0.332 0.014 0.583 0.148 0.833 0.268 0.494 0.254 0.96 0.544 1.401 0.875-0.509-0.211-1.002-0.444-1.504-0.642-0.254-0.084-0.512-0.205-0.733-0.19-0.255 0.007-0.529 0.036-0.798 0.057-1.087 0.099-2.174 0.211-3.274 0.226C37.511 22.257 38.591 22.088 39.686 21.975zM38.309 26.697c-0.166 0.275-0.935 0.331-1.482-0.219-0.547-0.551-2.414-1.313-2.414-1.313s-1.207-0.769-0.057-0.988c0 0 5.431-0.438 7.022 0 1.592 0.438-0.163 0.988-0.163 0.988S38.471 26.421 38.309 26.697zM38.527 30.43c-0.349 0.142-0.652 0.283-0.988 0.41-0.333 0.127-0.664 0.247-1.041 0.303 0.257-0.282 0.582-0.466 0.924-0.606 0.173-0.063 0.35-0.12 0.537-0.141C38.147 30.373 38.344 30.359 38.527 30.43zM35.687 22.046c0.36-0.064 0.72-0.12 1.083-0.142 0.364-0.021 0.734-0.042 1.098 0.021-0.713 0.148-1.408 0.317-2.121 0.444-0.709 0.12-1.422 0.24-2.156 0.269C34.268 22.356 34.974 22.18 35.687 22.046zM26.431 20.825c2.011 0 3.649 1.637 3.649 3.649 0 2.011-1.638 3.649-3.649 3.649-2.012 0-3.649-1.638-3.649-3.649C22.782 22.462 24.419 20.825 26.431 20.825zM21.095 93.956c-0.427 0.041-0.889 0.077-1.859-0.043 0.55-0.346 1.157-0.622 1.683-0.833 0.287 0.148 0.586 0.283 0.9 0.402C21.568 93.637 21.321 93.793 21.095 93.956zM26.495 94.562c-2.901-0.325-3.818-0.275-4.591-0.184v-0.177c0.232-0.147 0.476-0.289 0.723-0.431 1.245 0.389 2.639 0.636 4.097 0.784C26.646 94.556 26.575 94.562 26.495 94.562zM53.353 94.217c-0.633-0.078-1.362-0.127-3.184 0.035 0.883-0.148 1.739-0.339 2.569-0.586 0.211 0.127 0.416 0.247 0.614 0.374V94.217zM56.02 93.75c-0.97 0.12-1.433 0.086-1.859 0.043-0.184-0.134-0.385-0.261-0.586-0.389 0.343-0.12 0.678-0.246 1.007-0.387C55.046 93.207 55.554 93.455 56.02 93.75zM37.917 91.923c-14.676 0-26.572-12.344-26.572-27.574 0-15.23 11.896-27.574 26.572-27.574s26.575 12.344 26.575 27.574C64.492 79.579 52.593 91.923 37.917 91.923zM66.328 74.66c0.021-0.685 0.01-1.404-0.015-2.026 0.251-0.662 0.571-1.128 0.925-1.53C67.048 72.486 66.758 73.812 66.328 74.66zM68.138 73.672c0.043-1.277-0.038-2.689-0.085-3.332 0.004-0.027 0.004-0.056 0.008-0.077 0.402-0.409 0.801-0.861 1.146-1.531C69.037 70.567 68.713 72.543 68.138 73.672z" data-fill-palette-color="quaternary"></path></svg></g></svg></g></svg></g></svg></g><g></g></svg></g></svg><rect width="347.06861824265565" height="247.2" fill="none" stroke="none" visibility="hidden"></rect></g></svg></g></svg>